<?xml version="1.0" standalone="no"?>
<!DOCTYPE svg PUBLIC "-//W3C//DTD SVG 20010904//EN"
 "http://www.w3.org/TR/2001/REC-SVG-20010904/DTD/svg10.dtd">
<svg version="1.0" xmlns="http://www.w3.org/2000/svg"
 width="739.000000pt" height="761.000000pt" viewBox="0 0 739.000000 761.000000"
 preserveAspectRatio="xMidYMid meet">

<g transform="translate(0.000000,761.000000) scale(0.100000,-0.100000)"
fill="#000000" stroke="none">
<path d="M290 7540 c0 -6 584 -596 1298 -1312 1194 -1198 2055 -2063 4711
-4730 536 -538 978 -975 982 -972 5 3 9 657 9 1457 l0 1451 -239 241 c-132
132 -844 847 -1583 1589 -738 742 -1553 1559 -1809 1817 l-466 469 -1451 0
c-977 0 -1452 -3 -1452 -10z m4009 -2084 c37 -20 64 -62 57 -90 -3 -12 -71
-88 -151 -169 -117 -118 -145 -151 -140 -167 4 -11 47 -61 96 -111 49 -50 89
-95 89 -101 0 -7 -16 -27 -37 -45 l-36 -34 -22 21 c-12 11 -24 20 -28 20 -13
0 -267 264 -267 278 0 14 389 412 403 412 4 0 21 -7 36 -14z m466 -456 c58
-37 153 -137 160 -172 4 -16 13 -41 21 -56 19 -38 18 -62 -11 -143 -29 -83
-90 -153 -175 -201 -49 -28 -63 -31 -138 -31 -59 0 -87 5 -100 15 -9 9 -30 23
-47 31 -69 36 -132 120 -148 198 -25 121 14 227 115 313 23 20 46 36 51 36 5
0 21 9 35 21 24 18 37 20 112 17 69 -3 93 -9 125 -28z m440 -434 c112 -76 178
-191 155 -274 -15 -56 -29 -66 -73 -47 -41 17 -52 33 -63 90 -15 80 -70 134
-118 115 -39 -15 -39 -28 -2 -88 19 -31 52 -90 72 -131 48 -100 44 -141 -26
-210 -91 -91 -192 -76 -316 47 -57 56 -114 158 -114 203 0 64 43 109 90 94 43
-14 62 -43 69 -107 6 -56 11 -68 45 -101 33 -34 43 -38 79 -35 38 3 42 6 45
31 2 19 -6 42 -22 66 -14 20 -26 42 -26 47 0 6 -9 19 -20 29 -11 10 -20 23
-20 29 0 7 -9 29 -20 51 -11 22 -20 51 -20 65 0 36 33 97 72 132 31 28 37 30
103 26 55 -4 79 -11 110 -32z m440 -440 l175 -174 -27 -41 c-36 -55 -60 -54
-123 5 -38 36 -55 45 -72 41 -13 -4 -84 -68 -158 -142 -74 -75 -143 -141 -152
-146 -33 -18 -108 46 -108 92 0 5 67 78 150 162 82 84 150 159 150 167 0 8
-20 37 -44 64 -24 26 -46 57 -49 67 -6 21 16 49 38 49 7 0 15 7 19 15 3 8 10
15 15 15 6 0 89 -78 186 -174z"/>
<path d="M4610 4871 c-65 -16 -150 -122 -150 -187 0 -33 43 -110 70 -124 10
-5 46 -10 78 -10 54 0 64 4 104 36 23 20 45 41 47 48 2 6 15 24 27 39 34 41
31 86 -8 142 -41 58 -93 75 -168 56z"/>
</g>
</svg>
