<?xml version="1.0" encoding="UTF-8" standalone="no" ?>
<!DOCTYPE svg PUBLIC "-//W3C//DTD SVG 1.1//EN" "http://www.w3.org/Graphics/SVG/1.1/DTD/svg11.dtd">
<svg xmlns="http://www.w3.org/2000/svg" xmlns:xlink="http://www.w3.org/1999/xlink" version="1.1" width="1080" height="1080" viewBox="0 0 1080 1080" xml:space="preserve">
<desc>Created with Fabric.js 5.2.4</desc>
<defs>
</defs>
<g transform="matrix(1 0 0 1 540 540)" id="568ce3eb-d763-425e-b697-37d9c97d3288"  >
<rect style="stroke: none; stroke-width: 1; stroke-dasharray: none; stroke-linecap: butt; stroke-dashoffset: 0; stroke-linejoin: miter; stroke-miterlimit: 4; fill: rgb(255,255,255); fill-rule: nonzero; opacity: 1; visibility: hidden;" vector-effect="non-scaling-stroke"  x="-540" y="-540" rx="0" ry="0" width="1080" height="1080" />
</g>
<g transform="matrix(1 0 0 1 540 540)" id="0c874f22-bb95-457a-96a0-cd9e648067d4"  >
</g>
<g transform="matrix(4.06 4.06 -1.31 1.31 689.21 458.69)" id="a9d5f620-4f88-449a-b113-4f84f8297265"  >
<rect style="stroke: rgb(0,0,0); stroke-width: 0; stroke-dasharray: none; stroke-linecap: butt; stroke-dashoffset: 0; stroke-linejoin: miter; stroke-miterlimit: 4; fill: rgb(255,255,255); fill-rule: nonzero; opacity: 1;" vector-effect="non-scaling-stroke"  x="-33.0835" y="-33.0835" rx="0" ry="0" width="66.167" height="66.167" />
</g>
<g transform="matrix(2.03 0 0 2.03 540.31 540.31)"  >
<g style="" vector-effect="non-scaling-stroke"   >
		<g transform="matrix(0.13 0 0 -0.13 0 0)"  >
<path style="stroke: none; stroke-width: 1; stroke-dasharray: none; stroke-linecap: butt; stroke-dashoffset: 0; stroke-linejoin: miter; stroke-miterlimit: 4; fill: rgb(49,165,35); fill-rule: nonzero; opacity: 1;" vector-effect="non-scaling-stroke"  transform=" translate(-2940.85, -2487.92)" d="M 712 4709 C 739 4694 5143 283 5157 257 C 5167 239 5169 425 5170 1180 L 5170 2125 L 3872 3423 L 2575 4720 L 1635 4720 C 992 4719 701 4716 712 4709 z" stroke-linecap="round" />
</g>
		<g transform="matrix(0.13 0 0 -0.13 94.81 -36.84)"  >
<path style="stroke: none; stroke-width: 1; stroke-dasharray: none; stroke-linecap: butt; stroke-dashoffset: 0; stroke-linejoin: miter; stroke-miterlimit: 4; fill: rgb(49,165,35); fill-rule: nonzero; opacity: 1;" vector-effect="non-scaling-stroke"  transform=" translate(-3651.94, -2764.26)" d="M 3635 2864 C 3542 2816 3514 2717 3580 2670 C 3627 2637 3674 2644 3720 2690 C 3754 2724 3760 2736 3760 2773 C 3760 2819 3750 2837 3710 2864 C 3680 2884 3673 2884 3635 2864 z" stroke-linecap="round" />
</g>
</g>
</g>
</svg>
