<?xml version="1.0" encoding="UTF-8" standalone="no" ?>
<!DOCTYPE svg PUBLIC "-//W3C//DTD SVG 1.1//EN" "http://www.w3.org/Graphics/SVG/1.1/DTD/svg11.dtd">
<svg xmlns="http://www.w3.org/2000/svg" xmlns:xlink="http://www.w3.org/1999/xlink" version="1.1" width="1080" height="1080" viewBox="0 0 1080 1080" xml:space="preserve">
<desc>Created with Fabric.js 5.2.4</desc>
<defs>
</defs>
<g transform="matrix(1 0 0 1 540 540)" id="568ce3eb-d763-425e-b697-37d9c97d3288"  >
<rect style="stroke: none; stroke-width: 1; stroke-dasharray: none; stroke-linecap: butt; stroke-dashoffset: 0; stroke-linejoin: miter; stroke-miterlimit: 4; fill: rgb(255,255,255); fill-rule: nonzero; opacity: 1; visibility: hidden;" vector-effect="non-scaling-stroke"  x="-540" y="-540" rx="0" ry="0" width="1080" height="1080" />
</g>
<g transform="matrix(1 0 0 1 540 540)" id="0c874f22-bb95-457a-96a0-cd9e648067d4"  >
</g>
<g transform="matrix(4.06 4.06 -1.31 1.31 689.21 458.69)" id="a9d5f620-4f88-449a-b113-4f84f8297265"  >
<rect style="stroke: rgb(0,0,0); stroke-width: 0; stroke-dasharray: none; stroke-linecap: butt; stroke-dashoffset: 0; stroke-linejoin: miter; stroke-miterlimit: 4; fill: rgb(255,255,255); fill-rule: nonzero; opacity: 1;" vector-effect="non-scaling-stroke"  x="-33.0835" y="-33.0835" rx="0" ry="0" width="66.167" height="66.167" />
</g>
<g transform="matrix(1.77 0 0 1.77 540.31 540.31)"  >
<g style="" vector-effect="non-scaling-stroke"   >
		<g transform="matrix(0.13 0 0 -0.13 0 0)"  >
<path style="stroke: none; stroke-width: 1; stroke-dasharray: none; stroke-linecap: butt; stroke-dashoffset: 0; stroke-linejoin: miter; stroke-miterlimit: 4; fill: rgb(49,165,35); fill-rule: nonzero; opacity: 1;" vector-effect="non-scaling-stroke"  transform=" translate(-2940.85, -2487.92)" d="M 712 4709 C 739 4694 5143 283 5157 257 C 5167 239 5169 425 5170 1180 L 5170 2125 L 3872 3423 L 2575 4720 L 1635 4720 C 992 4719 701 4716 712 4709 z M 3323 3358 L 3343 3331 L 3281 3234 C 3247 3181 3221 3135 3224 3133 C 3226 3130 3274 3156 3330 3190 L 3431 3253 L 3461 3224 C 3497 3189 3497 3172 3462 3118 C 3395 3016 3371 2975 3375 2971 C 3378 2969 3398 2980 3420 2996 C 3483 3041 3513 3060 3533 3066 C 3542 3070 3550 3076 3550 3081 C 3550 3098 3597 3090 3615 3070 C 3646 3036 3629 3020 3477 2934 C 3443 2915 3397 2888 3375 2875 C 3353 2862 3326 2851 3316 2850 C 3295 2850 3240 2897 3240 2915 C 3240 2921 3269 2969 3305 3020 C 3341 3072 3367 3116 3362 3118 C 3357 3119 3312 3093 3262 3060 C 3212 3027 3165 3000 3158 3000 C 3136 3001 3090 3048 3090 3069 C 3090 3087 3106 3117 3201 3269 C 3222 3303 3240 3334 3240 3336 C 3240 3339 3247 3352 3256 3366 C 3276 3396 3296 3394 3323 3358 z M 3704 2951 C 3745 2941 3811 2884 3836 2838 C 3854 2803 3854 2721 3835 2684 C 3820 2653 3783 2615 3740 2587 C 3723 2575 3694 2570 3649 2570 C 3592 2570 3578 2574 3543 2599 C 3465 2656 3435 2738 3464 2813 C 3490 2878 3545 2931 3609 2950 C 3644 2961 3658 2961 3704 2951 z M 3990 2689 C 4008 2670 4019 2651 4015 2643 C 4011 2630 3968 2464 3956 2407 C 3953 2397 3987 2425 4030 2469 C 4074 2514 4115 2550 4121 2550 C 4138 2550 4170 2520 4170 2504 C 4170 2487 3932 2240 3916 2240 C 3909 2240 3889 2256 3870 2275 L 3837 2309 L 3859 2387 C 3872 2430 3888 2485 3896 2509 C 3904 2533 3908 2555 3905 2559 C 3902 2562 3867 2532 3827 2492 C 3787 2452 3752 2417 3747 2413 C 3739 2405 3690 2449 3690 2464 C 3690 2479 3932 2720 3947 2720 C 3953 2720 3973 2706 3990 2689 z" stroke-linecap="round" />
</g>
		<g transform="matrix(0.13 0 0 -0.13 94.81 -36.84)"  >
<path style="stroke: none; stroke-width: 1; stroke-dasharray: none; stroke-linecap: butt; stroke-dashoffset: 0; stroke-linejoin: miter; stroke-miterlimit: 4; fill: rgb(49,165,35); fill-rule: nonzero; opacity: 1;" vector-effect="non-scaling-stroke"  transform=" translate(-3651.94, -2764.26)" d="M 3635 2864 C 3542 2816 3514 2717 3580 2670 C 3627 2637 3674 2644 3720 2690 C 3754 2724 3760 2736 3760 2773 C 3760 2819 3750 2837 3710 2864 C 3680 2884 3673 2884 3635 2864 z" stroke-linecap="round" />
</g>
</g>
</g>
</svg>